<svg width="32" height="32" viewBox="0 0 32 32" fill="none" xmlns="http://www.w3.org/2000/svg">
  <path d="M16 2C8.268 2 2 8.268 2 16C2 23.732 8.268 30 16 30C23.732 30 30 23.732 30 16C30 8.268 23.732 2 16 2Z" fill="#2AA371"/>
  <path d="M9 16.5C9 12.358 12.358 9 16.5 9C20.642 9 24 12.358 24 16.5C24 20.642 20.642 24 16.5 24C12.358 24 9 20.642 9 16.5Z" fill="#1A825A"/>
  <path d="M14 12L22 12L22 20" stroke="white" stroke-width="2" stroke-linecap="round" stroke-linejoin="round"/>
  <path d="M22 12L10 24" stroke="white" stroke-width="2" stroke-linecap="round" stroke-linejoin="round"/>
</svg>